HIERARCHY
ROOT Hips
{
  OFFSET 47.0027 95.6244 19.8608
  CHANNELS 6 Xposition Yposition Zposition Zrotation Xrotation Yrotation
  JOINT spine
  {
    OFFSET 0 7.96568 0.458067
    CHANNELS 3 Zrotation Xrotation Yrotation
    JOINT spine1
    {
      OFFSET 0 10.2431 0
      CHANNELS 3 Zrotation Xrotation Yrotation
      JOINT spine2
      {
        OFFSET 0 9.81475 0
        CHANNELS 3 Zrotation Xrotation Yrotation
        JOINT Neck
        {
          OFFSET 0 25.1986 1.20138
          CHANNELS 3 Zrotation Xrotation Yrotation
          JOINT Head
          {
            OFFSET 0 7.61315 0
            CHANNELS 3 Zrotation Xrotation Yrotation
            End Site
            {
              OFFSET 0 18.4281 -6.07733
            }
          }
        }
        JOINT RightShoulder
        {
          OFFSET -4.1327 10.5992 -0.575451
          CHANNELS 3 Zrotation Xrotation Yrotation
          JOINT RightArm
          {
            OFFSET 0 13.9018 0
            CHANNELS 3 Zrotation Xrotation Yrotation
            JOINT RightArmRoll
            {
              OFFSET 0 7.01789 0
              CHANNELS 3 Zrotation Xrotation Yrotation
              JOINT RightForeArm
              {
                OFFSET 0 20.4406 0
                CHANNELS 3 Zrotation Xrotation Yrotation
                JOINT RightForeArmRoll
                {
                  OFFSET 0 7.87516 0
                  CHANNELS 3 Zrotation Xrotation Yrotation
                  JOINT RightHand
                  {
                    OFFSET 0 15.8037 0
                    CHANNELS 3 Zrotation Xrotation Yrotation
                    End Site
                    {
                      OFFSET 0 0 0
                    }
                  }
                }
              }
            }
          }
        }
        JOINT LeftShoulder
        {
          OFFSET 4.1327 10.5992 -0.575451
          CHANNELS 3 Zrotation Xrotation Yrotation
          JOINT LeftArm
          {
            OFFSET 0 13.9018 0
            CHANNELS 3 Zrotation Xrotation Yrotation
            JOINT LeftArmRoll
            {
              OFFSET 0 7.01789 0
              CHANNELS 3 Zrotation Xrotation Yrotation
              JOINT LeftForeArm
              {
                OFFSET 0 20.4406 0
                CHANNELS 3 Zrotation Xrotation Yrotation
                JOINT LeftForeArmRoll
                {
                  OFFSET 0 7.87516 0
                  CHANNELS 3 Zrotation Xrotation Yrotation
                  JOINT LeftHand
                  {
                    OFFSET 0 15.8037 0
                    CHANNELS 3 Zrotation Xrotation Yrotation
                    End Site
                    {
                      OFFSET 0 0 0
                    }
                  }
                }
              }
            }
          }
        }
      }
    }
  }
  JOINT RightUpLeg
  {
    OFFSET -7.06048 -1.2947 -1.0861
    CHANNELS 3 Zrotation Xrotation Yrotation
    JOINT RightUpLegRoll
    {
      OFFSET 0 18.5308 0
      CHANNELS 3 Zrotation Xrotation Yrotation
      JOINT RightLeg
      {
        OFFSET 0 -22.9476 0
        CHANNELS 3 Zrotation Xrotation Yrotation
        JOINT RightLegRoll
        {
          OFFSET 0 23.0226 0
          CHANNELS 3 Zrotation Xrotation Yrotation
          JOINT RightFoot
          {
            OFFSET 0 19.1625 0
            CHANNELS 3 Zrotation Xrotation Yrotation
            JOINT RightToeBase
            {
              OFFSET 0 16.0188 0
              CHANNELS 3 Zrotation Xrotation Yrotation
              End Site
              {
                OFFSET 0.00678978 7.75782 -0.894206
              }
            }
          }
        }
      }
    }
  }
  JOINT LeftUpLeg
  {
    OFFSET 7.06048 -1.2947 -1.0861
    CHANNELS 3 Zrotation Xrotation Yrotation
    JOINT LeftUpLegRoll
    {
      OFFSET 0 18.5309 0
      CHANNELS 3 Zrotation Xrotation Yrotation
      JOINT LeftLeg
      {
        OFFSET 0 22.9475 0
        CHANNELS 3 Zrotation Xrotation Yrotation
        JOINT LeftLegRoll
        {
          OFFSET 0 23.2355 0
          CHANNELS 3 Zrotation Xrotation Yrotation
          JOINT LeftFoot
          {
            OFFSET 0 18.9496 0
            CHANNELS 3 Zrotation Xrotation Yrotation
            JOINT LeftToeBase
            {
              OFFSET 0 16.0188 0
              CHANNELS 3 Zrotation Xrotation Yrotation
              End Site
              {
                OFFSET -0.0304289 7.75782 -0.894206
              }
            }
          }
        }
      }
    }
  }
}
MOTION
Frames: 13
Frame Time: 0.00208333
47.1598 95.7056 13.286 -1.48335 -2.05731 0.579485 0.507227 -1.67457 0.0756206 0.997302 0.653961 0.113291 0.996529 2.2989 0.0966107 -0.881989 21.021 -0.646489 1.8594 -4.26998 -0.682354 71.1131 2.32067 -0.357031 105.654 18.0842 20.6387 -7.15625e-015 3.18055e-015 9.54166e-015 2.65376 0.022927 -0.0811769 -5.84595e-006 -3.7131e-007 -3.02104 8.02993 -4.95137 0.697647 -73.1938 1.56517 0.977547 -106.934 20.0937 -16.0724 7.00373e-006 1.70958e-006 1.50017e-006 -3.45255 1.97172 -0.202263 1.65137e-005 -2.35759e-006 3.00175 -8.02981 -4.95141 -0.697633 177.637 -4.17522 -3.05597 180 7.01526e-015 178.834 177.937 3.91174 179.574 -1.9828e-006 2.18575e-006 0.0397546 -18.8241 67.9967 19.5164 8.15776 25.7103 -2.83952 -173.697 -1.58066 0.162223 -1.07169e-005 -4.64205e-006 -1.17682 -1.86638 -7.42881 0.10545 3.6278e-006 -6.39616e-006 -0.180833 20.6346 70.0783 -21.4537 -8.12481 25.2803 3.41594 
47.1544 95.6899 13.2905 -1.48408 -2.06091 0.57112 0.507246 -1.67162 0.0765269 0.998015 0.659895 0.113563 0.997231 2.30483 0.0968714 -0.884697 20.9914 -0.641538 1.85294 -4.23887 -0.679485 71.1002 2.31933 -0.3559 105.671 18.0962 20.6484 -7.15625e-015 -3.18055e-015 -0 2.63154 0.0229274 -0.0818091 -5.84595e-006 -3.7131e-007 -3.02109 8.02993 -4.95137 0.697647 -73.1812 1.55815 0.979117 -106.939 20.0844 -16.0577 7.00373e-006 1.70958e-006 1.50017e-006 -3.4674 1.99722 -0.200552 1.65137e-005 -2.35759e-006 3.00175 -8.02981 -4.95141 -0.697633 177.632 -4.17253 -3.04222 180 7.01526e-015 178.834 177.921 3.92165 179.576 -1.9828e-006 2.18575e-006 0.0398108 -18.8211 67.9933 19.5132 8.15818 25.7162 -2.8315 -173.696 -1.57032 0.158674 -1.07169e-005 -4.64205e-006 -1.17682 -1.86786 -7.46337 0.105255 3.6278e-006 -6.39616e-006 -0.181366 20.65 70.0938 -21.4701 -8.12489 25.2815 3.41416 
47.1421 95.699 13.303 -1.48495 -2.06491 0.562697 0.507276 -1.66863 0.0775116 0.998748 0.665908 0.113879 0.997951 2.31084 0.0971764 -0.887238 20.9617 -0.636627 1.84632 -4.20723 -0.676635 71.0876 2.31762 -0.354975 105.687 18.1089 20.6593 -1.19271e-014 3.18055e-015 3.18055e-015 2.60789 0.0229278 -0.0825214 -5.84595e-006 -3.7131e-007 -3.02117 8.02993 -4.95137 0.697647 -73.1686 1.55099 0.980751 -106.945 20.0754 -16.043 7.00373e-006 1.70958e-006 1.50017e-006 -3.4821 2.02277 -0.198854 1.65137e-005 -2.35759e-006 3.00175 -8.02981 -4.95141 -0.697633 177.628 -4.1707 -3.02804 180 7.01526e-015 178.834 177.904 3.93095 179.578 -1.9828e-006 2.18575e-006 0.0398504 -18.818 67.9895 19.5098 8.15859 25.7222 -2.82343 -173.694 -1.5605 0.154815 -1.07169e-005 -4.64205e-006 -1.17682 -1.86954 -7.49795 0.105031 3.6278e-006 -6.39616e-006 -0.181885 20.6657 70.1096 -21.4869 -8.12497 25.2826 3.41244 
47.1436 95.6897 13.3037 -1.48593 -2.06918 0.554234 0.507312 -1.66561 0.0785512 0.999495 0.671977 0.114226 0.998685 2.31691 0.0975125 -0.889662 20.9321 -0.631745 1.83959 -4.17523 -0.673797 71.075 2.31564 -0.354193 105.704 18.122 20.6712 7.15625e-015 -3.18055e-015 6.36111e-015 2.58324 0.0229283 -0.0832899 -5.84595e-006 -3.7131e-007 -3.02126 8.02993 -4.95137 0.697647 -73.156 1.54374 0.982429 -106.95 20.0665 -16.0283 7.00373e-006 1.70958e-006 1.50017e-006 -3.4967 2.04836 -0.197164 1.65137e-005 -2.35759e-006 3.00175 -8.02981 -4.95141 -0.697633 177.623 -4.16946 -3.01354 180 7.01526e-015 178.834 177.887 3.93982 179.579 -1.9828e-006 2.18575e-006 0.0398785 -18.8147 67.9856 19.5063 8.15901 25.7281 -2.81533 -173.692 -1.55105 0.150738 -1.07169e-005 -4.64205e-006 -1.17682 -1.87136 -7.53254 0.104787 3.6278e-006 -6.39616e-006 -0.182395 20.6816 70.1255 -21.5038 -8.12505 25.2838 3.41075 
47.1421 95.6894 13.3065 -1.48696 -2.07361 0.545748 0.507352 -1.66257 0.0796221 1.00025 0.678077 0.114592 0.999426 2.32301 0.0978664 -0.892015 20.9025 -0.626881 1.83278 -4.14302 -0.670967 71.0626 2.31351 -0.353494 105.72 18.1354 20.6835 -2.38542e-015 0 6.36111e-015 2.55801 0.0229287 -0.0840905 -5.84595e-006 -3.7131e-007 -3.02136 8.02993 -4.95137 0.697647 -73.1434 1.53642 0.984134 -106.956 20.0577 -16.0136 7.00373e-006 1.70958e-006 1.50017e-006 -3.51125 2.07398 -0.195479 1.65137e-005 -2.35759e-006 3.00175 -8.02981 -4.95141 -0.697633 177.618 -4.16857 -2.99887 180 7.01526e-015 178.834 177.869 3.94843 179.581 -1.9828e-006 2.18575e-006 0.0398999 -18.8113 67.9815 19.5026 8.15943 25.7341 -2.80722 -173.69 -1.54181 0.146537 -1.07169e-005 -4.64205e-006 -1.17682 -1.87326 -7.56714 0.104532 3.6278e-006 -6.39616e-006 -0.1829 20.6975 70.1415 -21.5209 -8.12512 25.2849 3.40908 
47.1421 95.6894 13.3117 -1.488 -2.07808 0.537256 0.507393 -1.65953 0.0807008 1.00101 0.684186 0.114962 1.00017 2.32912 0.0982247 -0.894348 20.8728 -0.622023 1.82596 -4.11076 -0.668139 71.0502 2.31134 -0.352816 105.737 18.1488 20.6959 -3.97569e-015 6.36111e-015 3.18055e-015 2.53264 0.0229292 -0.0848991 -5.84595e-006 -3.7131e-007 -3.02146 8.02993 -4.95137 0.697647 -73.1308 1.52909 0.985845 -106.962 20.0489 -15.9988 7.00373e-006 1.70958e-006 1.50017e-006 -3.52578 2.0996 -0.193796 1.65137e-005 -2.35759e-006 3.00175 -8.02981 -4.95141 -0.697633 177.614 -4.16776 -2.98416 180 7.01526e-015 178.834 177.852 3.95697 179.583 -1.9828e-006 2.18575e-006 0.0399196 -18.8078 67.9775 19.4989 8.15984 25.7401 -2.7991 -173.688 -1.53263 0.142305 -1.07169e-005 -4.64205e-006 -1.17682 -1.87518 -7.60175 0.104273 3.6278e-006 -6.39616e-006 -0.183403 20.7136 70.1575 -21.5381 -8.1252 25.286 3.40742 
47.1469 95.689 13.3057 -1.48902 -2.08247 0.528776 0.507431 -1.6565 0.0817639 1.00176 0.690279 0.115323 1.00091 2.33521 0.0985741 -0.896707 20.8432 -0.617159 1.81917 -4.0786 -0.665308 71.0377 2.30925 -0.352096 105.753 18.1621 20.7081 -3.97569e-015 -6.36111e-015 3.18055e-015 2.50756 0.0229296 -0.0856916 -5.84595e-006 -3.7131e-007 -3.02156 8.02993 -4.95137 0.697647 -73.1182 1.52179 0.987543 -106.968 20.04 -15.9841 7.00373e-006 1.70958e-006 1.50017e-006 -3.54035 2.12521 -0.192109 1.65137e-005 -2.35759e-006 3.00175 -8.02981 -4.95141 -0.697633 177.609 -4.16678 -2.96954 180 7.01526e-015 178.834 177.834 3.96567 179.585 -1.9828e-006 2.18575e-006 0.0399427 -18.8045 67.9735 19.4952 8.16025 25.746 -2.79099 -173.686 -1.52333 0.138135 -1.07169e-005 -4.64205e-006 -1.17682 -1.87705 -7.63635 0.10402 3.6278e-006 -6.39616e-006 -0.183909 20.7296 70.1734 -21.5552 -8.12527 25.2871 3.40575 
47.1439 95.6866 13.3111 -1.48997 -2.08666 0.520324 0.507465 -1.65349 0.0827878 1.0025 0.696332 0.115661 1.00164 2.34126 0.0989013 -0.899141 20.8136 -0.612278 1.81245 -4.0467 -0.662468 71.0251 2.30734 -0.351274 105.77 18.1751 20.7197 -0 0 6.36111e-015 2.48319 0.02293 -0.086444 -5.84595e-006 -3.7131e-007 -3.02164 8.02993 -4.95137 0.697647 -73.1056 1.51456 0.989209 -106.973 20.0311 -15.9694 7.00373e-006 1.70958e-006 1.50017e-006 -3.55498 2.15079 -0.190417 1.65137e-005 -2.35759e-006 3.00175 -8.02981 -4.95141 -0.697633 177.605 -4.16537 -2.95513 180 7.01526e-015 178.834 177.817 3.97466 179.587 -1.9828e-006 2.18575e-006 0.0399741 -18.8012 67.9696 19.4917 8.16066 25.752 -2.78289 -173.684 -1.51378 0.134121 -1.07169e-005 -4.64205e-006 -1.17682 -1.87883 -7.67094 0.103782 3.6278e-006 -6.39616e-006 -0.184421 20.7456 70.1893 -21.5722 -8.12535 25.2883 3.40405 
47.1455 95.6848 13.3088 -1.49081 -2.09054 0.511918 0.507491 -1.65051 0.0837489 1.00323 0.702321 0.115964 1.00235 2.34725 0.0991931 -0.901698 20.784 -0.607369 1.80586 -4.01522 -0.659615 71.0124 2.30574 -0.350287 105.786 18.1876 20.7303 -8.74653e-015 3.18055e-015 3.18055e-015 2.45997 0.0229304 -0.0871323 -5.84595e-006 -3.7131e-007 -3.02171 8.02993 -4.95137 0.697647 -73.093 1.50745 0.990823 -106.979 20.022 -15.9547 7.00373e-006 1.70958e-006 1.50017e-006 -3.56974 2.17632 -0.188715 1.65137e-005 -2.35759e-006 3.00175 -8.02981 -4.95141 -0.697633 177.6 -4.16328 -2.94108 180 7.01526e-015 178.834 177.8 3.98414 179.588 -1.9828e-006 2.18575e-006 0.0400187 -18.7981 67.9659 19.4884 8.16107 25.7579 -2.77483 -173.682 -1.5038 0.130355 -1.07169e-005 -4.64205e-006 -1.17682 -1.88045 -7.70552 0.103567 3.6278e-006 -6.39616e-006 -0.184945 20.7613 70.205 -21.589 -8.12543 25.2895 3.40231 
47.1465 95.6875 13.3127 -1.49149 -2.09398 0.503575 0.507506 -1.64757 0.0846239 1.00393 0.708223 0.116218 1.00305 2.35315 0.099436 -0.904426 20.7544 -0.602419 1.79944 -3.98432 -0.656743 70.9995 2.30456 -0.349074 105.803 18.1993 20.7395 9.54166e-015 -9.54166e-015 3.18055e-015 2.43832 0.0229308 -0.0877324 -5.84595e-006 -3.7131e-007 -3.02175 8.02993 -4.95137 0.697647 -73.0804 1.50049 0.992368 -106.984 20.0126 -15.9401 7.00373e-006 1.70958e-006 1.50017e-006 -3.58465 2.20179 -0.186999 1.65137e-005 -2.35759e-006 3.00175 -8.02981 -4.95141 -0.697633 177.596 -4.16026 -2.92751 180 7.01526e-015 178.834 177.784 3.9943 179.59 -1.9828e-006 2.18575e-006 0.0400815 -18.7953 67.9626 19.4853 8.16147 25.7639 -2.76682 -173.681 -1.49325 0.12693 -1.07169e-005 -4.64205e-006 -1.17682 -1.88186 -7.74006 0.103384 3.6278e-006 -6.39616e-006 -0.185482 20.7768 70.2204 -21.6056 -8.12551 25.2907 3.40051 
47.1482 95.6872 13.3089 -1.49198 -2.09688 0.495313 0.507507 -1.64468 0.0853891 1.00461 0.714013 0.116409 1.00371 2.35894 0.0996169 -0.907374 20.7248 -0.597418 1.79324 -3.95414 -0.653847 70.9863 2.3039 -0.347573 105.82 18.2102 20.747 -1.98785e-014 6.36111e-015 -3.18055e-015 2.41868 0.0229312 -0.0882203 -5.84595e-006 -3.7131e-007 -3.02175 8.02993 -4.95137 0.697647 -73.0677 1.49372 0.993823 -106.989 20.003 -15.9255 7.00373e-006 1.70958e-006 1.50017e-006 -3.59977 2.22717 -0.185267 1.65137e-005 -2.35759e-006 3.00175 -8.02981 -4.95141 -0.697633 177.592 -4.15603 -2.91455 180 7.01526e-015 178.834 177.769 4.00535 179.591 -1.9828e-006 2.18575e-006 0.0401676 -18.7928 67.9596 19.4826 8.16187 25.7697 -2.75886 -173.68 -1.48195 0.12394 -1.07169e-005 -4.64205e-006 -1.17682 -1.88298 -7.77458 0.103241 3.6278e-006 -6.39616e-006 -0.186039 20.792 70.2356 -21.6218 -8.1256 25.292 3.39864 
47.1489 95.6898 13.3155 -1.49224 -2.0991 0.487148 0.507492 -1.64187 0.086021 1.00525 0.719668 0.116524 1.00435 2.3646 0.0997223 -0.910589 20.6953 -0.592354 1.78731 -3.92485 -0.650921 70.9728 2.30388 -0.345723 105.837 18.2199 20.7523 -3.18055e-015 3.18055e-015 3.18055e-015 2.40147 0.0229315 -0.0885718 -5.84595e-006 -3.7131e-007 -3.02172 8.02993 -4.95137 0.697647 -73.0551 1.4872 0.995169 -106.994 19.993 -15.911 7.00373e-006 1.70958e-006 1.50017e-006 -3.61514 2.25246 -0.183514 1.65137e-005 -2.35759e-006 3.00175 -8.02981 -4.95141 -0.697633 177.587 -4.15036 -2.90233 180 7.01526e-015 178.834 177.755 4.01743 179.593 -1.9828e-006 2.18575e-006 0.0402819 -18.7907 67.9571 19.4804 8.16227 25.7756 -2.75097 -173.679 -1.46976 0.121478 -1.07169e-005 -4.64205e-006 -1.17682 -1.88376 -7.80906 0.103148 3.6278e-006 -6.39616e-006 -0.186618 20.8068 70.2504 -21.6376 -8.12569 25.2934 3.39669 
47.1443 95.6879 13.3207 -1.49221 -2.10053 0.479098 0.507457 -1.63913 0.0864962 1.00586 0.725164 0.11655 1.00495 2.37009 0.099739 -0.91412 20.6658 -0.587216 1.78169 -3.89659 -0.647961 70.959 2.30463 -0.343462 105.855 18.2284 20.7551 4.77083e-015 -3.18055e-015 6.36111e-015 2.38712 0.0229317 -0.088763 -5.84595e-006 -3.7131e-007 -3.02164 8.02993 -4.95137 0.697647 -73.0424 1.48095 0.996388 -106.998 19.9825 -15.8966 7.00373e-006 1.70958e-006 1.50017e-006 -3.63079 2.27762 -0.181736 1.65137e-005 -2.35759e-006 3.00175 -8.02981 -4.95141 -0.697633 177.583 -4.14298 -2.89099 180 7.01526e-015 178.834 177.742 4.03077 179.594 -1.9828e-006 2.18575e-006 0.0404293 -18.7891 67.9552 19.4787 8.16267 25.7814 -2.74317 -173.68 -1.45652 0.119637 -1.07169e-005 -4.64205e-006 -1.17682 -1.88413 -7.8435 0.103113 3.6278e-006 -6.39616e-006 -0.187223 20.8211 70.2648 -21.6529 -8.12579 25.2949 3.39463 
